<svg xmlns="http://www.w3.org/2000/svg" xmlns:xlink="http://www.w3.org/1999/xlink" width="800" zoomAndPan="magnify" viewBox="0 0 600 299.999988" height="400" preserveAspectRatio="xMidYMid meet" version="1.0"><defs><g/></defs><g fill="#ffffff" fill-opacity="1"><g transform="translate(14.686534, 200.272328)"><g><path d="M 78.75 2.359375 C 64.3125 2.359375 51.546875 -0.691406 40.453125 -6.796875 C 29.359375 -12.898438 20.660156 -21.296875 14.359375 -31.984375 C 8.066406 -42.679688 4.921875 -54.921875 4.921875 -68.703125 C 4.921875 -82.617188 8.066406 -94.921875 14.359375 -105.609375 C 20.660156 -116.304688 29.320312 -124.707031 40.34375 -130.8125 C 51.375 -136.914062 64.039062 -139.96875 78.34375 -139.96875 C 92.78125 -139.96875 105.507812 -136.914062 116.53125 -130.8125 C 127.5625 -124.707031 136.222656 -116.304688 142.515625 -105.609375 C 148.816406 -94.921875 151.96875 -82.617188 151.96875 -68.703125 C 151.96875 -54.921875 148.851562 -42.679688 142.625 -31.984375 C 136.394531 -21.296875 127.765625 -12.898438 116.734375 -6.796875 C 105.710938 -0.691406 93.050781 2.359375 78.75 2.359375 Z M 78.75 -31.109375 C 85.832031 -31.109375 92.0625 -32.710938 97.4375 -35.921875 C 102.820312 -39.140625 107.023438 -43.570312 110.046875 -49.21875 C 113.066406 -54.863281 114.578125 -61.359375 114.578125 -68.703125 C 114.578125 -76.054688 113.03125 -82.585938 109.9375 -88.296875 C 106.851562 -94.003906 102.585938 -98.460938 97.140625 -101.671875 C 91.703125 -104.890625 85.4375 -106.5 78.34375 -106.5 C 71.394531 -106.5 65.195312 -104.890625 59.75 -101.671875 C 54.300781 -98.460938 50.035156 -94.003906 46.953125 -88.296875 C 43.867188 -82.585938 42.328125 -76.054688 42.328125 -68.703125 C 42.328125 -61.359375 43.898438 -54.863281 47.046875 -49.21875 C 50.203125 -43.570312 54.5 -39.140625 59.9375 -35.921875 C 65.382812 -32.710938 71.65625 -31.109375 78.75 -31.109375 Z M 78.75 -31.109375 "/></g></g></g><g fill="#ffffff" fill-opacity="1"><g transform="translate(171.577717, 200.272328)"><g><path d="M 9.84375 39.375 L 9.84375 -98.421875 L 43.3125 -98.421875 L 45.28125 -80.3125 L 45.28125 39.375 Z M 71.65625 2.359375 C 63.519531 2.359375 56.789062 0.324219 51.46875 -3.734375 C 46.15625 -7.804688 42.21875 -13.710938 39.65625 -21.453125 C 37.101562 -29.203125 35.828125 -38.457031 35.828125 -49.21875 C 35.828125 -60.101562 37.101562 -69.382812 39.65625 -77.0625 C 42.21875 -84.75 46.15625 -90.625 51.46875 -94.6875 C 56.789062 -98.757812 63.519531 -100.796875 71.65625 -100.796875 C 80.976562 -100.796875 88.953125 -98.757812 95.578125 -94.6875 C 102.203125 -90.625 107.285156 -84.75 110.828125 -77.0625 C 114.367188 -69.382812 116.140625 -60.101562 116.140625 -49.21875 C 116.140625 -38.457031 114.367188 -29.203125 110.828125 -21.453125 C 107.285156 -13.710938 102.203125 -7.804688 95.578125 -3.734375 C 88.953125 0.324219 80.976562 2.359375 71.65625 2.359375 Z M 62.203125 -30.3125 C 65.484375 -30.3125 68.367188 -31.128906 70.859375 -32.765625 C 73.359375 -34.410156 75.363281 -36.644531 76.875 -39.46875 C 78.382812 -42.289062 79.140625 -45.539062 79.140625 -49.21875 C 79.140625 -52.894531 78.414062 -56.140625 76.96875 -58.953125 C 75.53125 -61.773438 73.5625 -63.972656 71.0625 -65.546875 C 68.570312 -67.128906 65.6875 -67.921875 62.40625 -67.921875 C 59.125 -67.921875 56.171875 -67.128906 53.546875 -65.546875 C 50.921875 -63.972656 48.882812 -61.773438 47.4375 -58.953125 C 46 -56.140625 45.28125 -52.894531 45.28125 -49.21875 C 45.28125 -45.539062 46 -42.289062 47.4375 -39.46875 C 48.882812 -36.644531 50.882812 -34.410156 53.4375 -32.765625 C 56 -31.128906 58.921875 -30.3125 62.203125 -30.3125 Z M 62.203125 -30.3125 "/></g></g></g><g fill="#3B82F6" fill-opacity="1"><g transform="translate(291.659172, 200.272328)"><g><path d="M 11.8125 0 L 11.8125 -137.796875 L 106.109375 -137.796875 L 106.109375 -104.328125 L 48.234375 -104.328125 L 48.234375 -84.25 L 93.515625 -84.25 L 93.515625 -50.796875 L 48.234375 -50.796875 L 48.234375 0 Z M 11.8125 0 "/></g></g></g><g fill="#3B82F6" fill-opacity="1"><g transform="translate(402.683767, 200.272328)"><g><path d="M 10.828125 0 L 10.828125 -98.421875 L 46.265625 -98.421875 L 46.265625 0 Z M 28.546875 -107.875 C 23.296875 -107.875 18.703125 -109.84375 14.765625 -113.78125 C 10.828125 -117.71875 8.859375 -122.3125 8.859375 -127.5625 C 8.859375 -132.945312 10.828125 -137.570312 14.765625 -141.4375 C 18.703125 -145.3125 23.296875 -147.25 28.546875 -147.25 C 33.921875 -147.25 38.546875 -145.3125 42.421875 -141.4375 C 46.296875 -137.570312 48.234375 -132.945312 48.234375 -127.5625 C 48.234375 -122.3125 46.296875 -117.71875 42.421875 -113.78125 C 38.546875 -109.84375 33.921875 -107.875 28.546875 -107.875 Z M 28.546875 -107.875 "/></g></g></g><g fill="#3B82F6" fill-opacity="1"><g transform="translate(459.770886, 200.272328)"><g><path d="M 1.96875 0 L 42.515625 -55.90625 L 70.46875 -98.421875 L 112.203125 -98.421875 L 71.453125 -41.9375 L 44.09375 0 Z M 72.640625 0 L 45.671875 -41.9375 L 4.53125 -98.421875 L 46.265625 -98.421875 L 74.21875 -55.90625 L 114.578125 0 Z M 72.640625 0 "/></g></g></g></svg>